<svg width="1092" height="520" viewBox="0 0 1092 520" fill="none" xmlns="http://www.w3.org/2000/svg">
<path d="M1060 -4.63341e-05C1077.67 -4.71066e-05 1092 14.3268 1092 32L1092 488C1092 505.673 1077.67 520 1060 520L32 520C14.3269 520 -6.26248e-07 505.673 -1.39876e-06 488L-2.13312e-05 32C-2.21037e-05 14.3269 14.3269 -6.26248e-07 32 -1.39876e-06L1060 -4.63341e-05ZM541.36 265.276C541.36 330.399 567.788 360.075 582.911 388.103C593.118 407.02 597.824 442.523 599.449 465.206C599.894 471.415 603.029 476.306 606.843 476.305C678.613 476.286 1010.22 476.253 1037.17 476.246C1041.14 476.245 1044.28 470.964 1044.34 464.463L1044.34 57.7529C1044.04 51.343 1039.13 46.0019 1035.21 46.0019L607.228 46.0029C603.262 46.0029 600.084 51.2575 599.916 57.7539C599.373 78.7045 596.641 117.689 582.911 140.802C565.772 169.653 541.36 200.154 541.36 265.276Z" fill="#9834FC"/>
<mask id="mask0_1319_870" style="mask-type:alpha" maskUnits="userSpaceOnUse" x="0" y="0" width="1092" height="520">
<path d="M1060 -4.63341e-05C1077.67 -4.71066e-05 1092 14.3268 1092 32L1092 488C1092 505.673 1077.67 520 1060 520L32 520C14.3269 520 -6.26248e-07 505.673 -1.39876e-06 488L-2.13312e-05 32C-2.21037e-05 14.3269 14.3269 -6.26248e-07 32 -1.39876e-06L1060 -4.63341e-05ZM540.61 264.276C540.61 329.399 567.038 359.075 582.161 387.103C592.368 406.02 597.074 441.523 598.699 464.206C599.144 470.415 602.278 475.305 606.092 475.305C677.862 475.286 1009.47 475.253 1036.42 475.246C1040.39 475.245 1043.53 469.964 1043.59 463.463L1043.59 56.7529C1043.29 50.343 1038.38 45.002 1034.46 45.0019L606.478 45.0029C602.511 45.0029 599.333 50.2575 599.165 56.7539C598.622 77.7045 595.891 116.689 582.161 139.802C565.022 168.654 540.61 199.154 540.61 264.276Z" fill="#9834FC"/>
</mask>
<g mask="url(#mask0_1319_870)">
<g filter="url(#filter0_f_1319_870)">
<circle cx="366.109" cy="507.5" r="246.5" fill="#FF39CA"/>
</g>
<g filter="url(#filter1_f_1319_870)">
<circle cx="1067.61" cy="299.5" r="185.5" fill="#FF39CA"/>
</g>
</g>
<defs>
<filter id="filter0_f_1319_870" x="-361.547" y="-220.156" width="1455.31" height="1455.31" filterUnits="userSpaceOnUse" color-interpolation-filters="sRGB">
<feFlood flood-opacity="0" result="BackgroundImageFix"/>
<feBlend mode="normal" in="SourceGraphic" in2="BackgroundImageFix" result="shape"/>
<feGaussianBlur stdDeviation="240.578" result="effect1_foregroundBlur_1319_870"/>
</filter>
<filter id="filter1_f_1319_870" x="520.022" y="-248.087" width="1095.17" height="1095.17" filterUnits="userSpaceOnUse" color-interpolation-filters="sRGB">
<feFlood flood-opacity="0" result="BackgroundImageFix"/>
<feBlend mode="normal" in="SourceGraphic" in2="BackgroundImageFix" result="shape"/>
<feGaussianBlur stdDeviation="181.044" result="effect1_foregroundBlur_1319_870"/>
</filter>
</defs>
</svg>
