<svg width="1093" height="520" viewBox="0 0 1093 520" fill="none" xmlns="http://www.w3.org/2000/svg">
<path d="M1060.39 -4.63341e-05C1078.06 -4.71066e-05 1092.39 14.3268 1092.39 32L1092.39 488C1092.39 505.673 1078.06 520 1060.39 520L32.3906 520C14.7175 520 0.390624 505.673 0.390624 488L0.390604 32C0.390603 14.3269 14.7175 -6.26248e-07 32.3906 -1.39876e-06L1060.39 -4.63341e-05ZM541.751 265.276C541.751 330.399 568.179 360.075 583.302 388.103C593.509 407.02 598.215 442.523 599.84 465.206C600.285 471.415 603.42 476.306 607.233 476.305C679.004 476.286 1010.61 476.253 1037.56 476.246C1041.53 476.245 1044.67 470.964 1044.73 464.463L1044.73 57.7529C1044.43 51.343 1039.52 46.0019 1035.6 46.0019L607.619 46.0029C603.653 46.0029 600.475 51.2575 600.307 57.7539C599.763 78.7045 597.032 117.689 583.302 140.802C566.162 169.653 541.751 200.154 541.751 265.276Z" fill="black"/>
</svg>
