<svg width="750" height="1401" viewBox="0 0 750 1401" fill="none" xmlns="http://www.w3.org/2000/svg">
<path d="M749.14 1369C749.14 1386.67 734.813 1401 717.14 1401H32C14.3268 1401 0 1386.67 0 1369V32C0 14.3269 14.3269 0 32 0H717.14C734.813 0 749.14 14.3269 749.14 32V1369ZM368.648 502C271.79 502 227.651 527.417 185.965 552.834C157.829 569.989 105.024 577.897 71.2871 580.629C62.052 581.377 54.7789 586.645 54.7803 593.055C54.808 713.677 54.8567 1276.66 54.8672 1321.95C54.8687 1328.62 62.7228 1333.9 72.3926 1334H677.302C686.836 1333.49 694.78 1325.25 694.78 1318.65L694.779 593.702C694.779 587.036 686.964 581.696 677.302 581.413C646.141 580.5 588.16 575.91 553.783 552.834C510.871 524.028 465.507 502 368.648 502Z" fill="black"/>
</svg>
